<?xml version="1.0" encoding="utf-8"?>
<svg version="1.1" xmlns:xlink="http://www.w3.org/1999/xlink" width="72px" height="75px" xmlns="http://www.w3.org/2000/svg">
  <g transform="matrix(1 0 0 1 -195 -356 )">
    <path d="M 58.3629976580796 46.8383584589615  C 59.6416861826698 43.8651591289782  60.2810304449649 40.7453936348409  60.2810304449649 37.4790619765494  C 60.2810304449649 34.212730318258  59.6416861826698 31.0929648241206  58.3629976580796 28.1197654941374  C 57.0843091334895 25.1465661641541  55.3559718969555 22.5781686208822  53.1779859484778 20.4145728643216  C 51 18.250977107761  48.4145199063232 16.5340591848129  45.4215456674473 15.2638190954774  C 42.4285714285714 13.9935790061418  39.288056206089 13.358458961474  36 13.358458961474  C 32.711943793911 13.358458961474  29.5714285714286 13.9935790061418  26.5784543325527 15.2638190954774  C 23.5854800936768 16.5340591848129  21 18.250977107761  18.8220140515222 20.4145728643216  C 16.6440281030445 22.5781686208822  14.9156908665105 25.1465661641541  13.6370023419204 28.1197654941374  C 12.3583138173302 31.0929648241206  11.7189695550351 34.212730318258  11.7189695550351 37.4790619765494  C 11.7189695550351 40.7453936348409  12.3583138173302 43.8651591289782  13.6370023419204 46.8383584589615  C 14.9156908665105 49.8115577889447  16.6440281030445 52.3799553322166  18.8220140515222 54.5435510887772  C 21 56.7071468453378  23.5854800936768 58.4240647682859  26.5784543325527 59.6943048576214  C 29.5714285714286 60.964544946957  32.711943793911 61.5996649916248  36 61.5996649916248  C 39.288056206089 61.5996649916248  42.4285714285714 60.964544946957  45.4215456674473 59.6943048576214  C 48.4145199063232 58.4240647682859  51 56.7071468453378  53.1779859484778 54.5435510887772  C 55.3559718969555 52.3799553322166  57.0843091334895 49.8115577889447  58.3629976580796 46.8383584589615  Z M 71.7470725995316 47.8643216080402  C 72 48.1993299832496  72.056206088993 48.6041317699609  71.9156908665105 49.0787269681742  C 71.8032786885246 49.4974874371859  71.5222482435597 49.7766610831937  71.0725995316159 49.9162479061977  L 58 53.9363484087102  L 58 66.750418760469  C 58.7634660421546 67.1970965940815  58.5807962529274 67.5600223338917  58.2154566744731 67.8391959798995  C 57.7939110070258 68.1183696259073  57.3864168618267 68.1742043551089  56.9929742388759 68.0067001675042  L 44.6838407494145 64.070351758794  L 37.096018735363 74.4556113902848  C 36.8149882903981 74.8185371300949  36.4496487119438 75  36 75  C 35.5503512880562 75  35.1850117096019 74.8185371300949  34.903981264637 74.4556113902848  L 27.3161592505855 64.070351758794  L 15.0070257611241 68.0067001675042  C 14.6135831381733 68.1742043551089  14.2060889929742 68.1183696259073  13.7845433255269 67.8391959798995  C 13.4192037470726 67.5600223338917  13.2365339578454 67.1970965940815  14 66.750418760469  L 14 53.9363484087102  L 0.927400468384075 49.9162479061977  C 0.477751756440281 49.7766610831937  0.19672131147541 49.4974874371859  0.0843091334894614 49.0787269681742  C -0.056206088992974 48.6041317699609  0 48.1993299832496  0.252927400468384 47.8643216080402  L 7.84074941451991 37.4790619765494  L 0.252927400468384 27.0938023450586  C 0 26.7308766052485  -0.056206088992974 26.3260748185371  0.0843091334894614 25.8793969849246  C 0.19672131147541 25.4606365159129  0.477751756440281 25.1814628699051  0.927400468384075 25.0418760469012  L 14 21.0217755443886  L 14 8.20770519262982  C 13.2365339578454 7.7610273590173  13.4192037470726 7.39810161920714  13.7845433255269 7.11892797319933  C 14.2060889929742 6.83975432719151  14.6135831381733 6.78391959798995  15.0070257611241 6.95142378559464  L 27.3161592505855 10.8877721943049  L 34.903981264637 0.502512562814067  C 35.1569086651054 0.167504187604686  35.5222482435597 0  36 0  C 36.4777517564403 0  36.8430913348946 0.167504187604686  37.096018735363 0.502512562814067  L 44.6838407494145 10.8877721943049  L 56.9929742388759 6.95142378559464  C 57.3864168618267 6.78391959798995  57.7939110070258 6.83975432719151  58.2154566744731 7.11892797319933  C 58.5807962529274 7.39810161920714  58.7634660421546 7.7610273590173  58 8.20770519262982  L 58 21.0217755443886  L 71.0725995316159 25.0418760469012  C 71.5222482435597 25.1814628699051  71.8032786885246 25.4606365159129  71.9156908665105 25.8793969849246  C 72.056206088993 26.3260748185371  72 26.7308766052485  71.7470725995316 27.0938023450586  L 64.1592505854801 37.4790619765494  L 71.7470725995316 47.8643216080402  Z " fill-rule="nonzero" fill="#faa22f" stroke="none" transform="matrix(1 0 0 1 195 356 )" />
  </g>
</svg>