<?xml version="1.0" encoding="utf-8"?>
<svg version="1.1" xmlns:xlink="http://www.w3.org/1999/xlink" width="39px" height="41px" xmlns="http://www.w3.org/2000/svg">
  <g transform="matrix(1 0 0 1 -181 -559 )">
    <path d="M 23.0931677018634 36.6452905811623  C 23.3623188405797 36.9191716766867  23.4968944099379 37.2341349365397  23.4968944099379 37.5901803607214  C 23.4968944099379 37.9462257849031  23.3623188405797 38.2611890447562  23.0931677018634 38.5350701402806  L 21.0745341614907 40.5891783567134  C 20.8053830227743 40.8630594522378  20.4958592132505 41  20.1459627329193 41  C 19.796066252588 41  19.4865424430642 40.8630594522378  19.2173913043478 40.5891783567134  L 0.403726708074534 21.4448897795591  C 0.134575569358178 21.1710086840347  0 20.8560454241817  0 20.5  C 0 20.1439545758183  0.134575569358178 19.8289913159653  0.403726708074534 19.5551102204409  L 19.2173913043478 0.410821643286574  C 19.4865424430642 0.13694054776219  19.796066252588 0  20.1459627329193 0  C 20.4958592132505 0  20.8053830227743 0.13694054776219  21.0745341614907 0.410821643286574  L 23.0931677018634 2.46492985971944  C 23.3623188405797 2.73881095524382  23.4968944099379 3.05377421509686  23.4968944099379 3.40981963927856  C 23.4968944099379 3.76586506346025  23.3623188405797 4.08082832331329  23.0931677018634 4.35470941883768  L 7.22670807453416 20.5  L 23.0931677018634 36.6452905811623  Z M 38.5962732919255 36.6452905811623  C 38.8654244306418 36.9191716766867  39 37.2341349365397  39 37.5901803607214  C 39 37.9462257849031  38.8654244306418 38.2611890447562  38.5962732919255 38.5350701402806  L 36.5776397515528 40.5891783567134  C 36.3084886128364 40.8630594522378  35.9989648033126 41  35.6490683229814 41  C 35.2991718426501 41  34.9896480331263 40.8630594522378  34.7204968944099 40.5891783567134  L 15.9068322981366 21.4448897795591  C 15.6376811594203 21.1710086840347  15.5031055900621 20.8560454241817  15.5031055900621 20.5  C 15.5031055900621 20.1439545758183  15.6376811594203 19.8289913159653  15.9068322981366 19.5551102204409  L 34.7204968944099 0.410821643286574  C 34.9896480331263 0.13694054776219  35.2991718426501 0  35.6490683229814 0  C 35.9989648033126 0  36.3084886128364 0.13694054776219  36.5776397515528 0.410821643286574  L 38.5962732919255 2.46492985971944  C 38.8654244306418 2.73881095524382  39 3.05377421509686  39 3.40981963927856  C 39 3.76586506346025  38.8654244306418 4.08082832331329  38.5962732919255 4.35470941883768  L 22.7298136645963 20.5  L 38.5962732919255 36.6452905811623  Z " fill-rule="nonzero" fill="#000000" stroke="none" transform="matrix(1 0 0 1 181 559 )" />
  </g>
</svg>