<?xml version="1.0" encoding="utf-8"?>
<svg version="1.1" xmlns:xlink="http://www.w3.org/1999/xlink" width="39px" height="41px" xmlns="http://www.w3.org/2000/svg">
  <g transform="matrix(1 0 0 1 -230 -559 )">
    <path d="M 23.0931677018634 19.5551102204409  C 23.3623188405797 19.8289913159653  23.4968944099379 20.1439545758183  23.4968944099379 20.5  C 23.4968944099379 20.8560454241817  23.3623188405797 21.1710086840347  23.0931677018634 21.4448897795591  L 4.27950310559006 40.5891783567134  C 4.01035196687371 40.8630594522378  3.7008281573499 41  3.35093167701863 41  C 3.00103519668737 41  2.69151138716356 40.8630594522378  2.4223602484472 40.5891783567134  L 0.403726708074534 38.5350701402806  C 0.134575569358178 38.2611890447562  0 37.9462257849031  0 37.5901803607214  C 0 37.2341349365397  0.134575569358178 36.9191716766867  0.403726708074534 36.6452905811623  L 16.2701863354037 20.5  L 0.403726708074534 4.35470941883768  C 0.134575569358178 4.08082832331329  0 3.76586506346025  0 3.40981963927856  C 0 3.05377421509686  0.134575569358178 2.73881095524382  0.403726708074534 2.46492985971944  L 2.4223602484472 0.410821643286574  C 2.69151138716356 0.13694054776219  3.00103519668737 0  3.35093167701863 0  C 3.7008281573499 0  4.01035196687371 0.13694054776219  4.27950310559006 0.410821643286574  L 23.0931677018634 19.5551102204409  Z M 38.5962732919255 19.5551102204409  C 38.8654244306418 19.8289913159653  39 20.1439545758183  39 20.5  C 39 20.8560454241817  38.8654244306418 21.1710086840347  38.5962732919255 21.4448897795591  L 19.7826086956522 40.5891783567134  C 19.5134575569358 40.8630594522378  19.203933747412 41  18.8540372670807 41  C 18.5041407867495 41  18.1946169772257 40.8630594522378  17.9254658385093 40.5891783567134  L 15.9068322981366 38.5350701402806  C 15.6376811594203 38.2611890447562  15.5031055900621 37.9462257849031  15.5031055900621 37.5901803607214  C 15.5031055900621 37.2341349365397  15.6376811594203 36.9191716766867  15.9068322981366 36.6452905811623  L 31.7732919254658 20.5  L 15.9068322981366 4.35470941883768  C 15.6376811594203 4.08082832331329  15.5031055900621 3.76586506346025  15.5031055900621 3.40981963927856  C 15.5031055900621 3.05377421509686  15.6376811594203 2.73881095524382  15.9068322981366 2.46492985971944  L 17.9254658385093 0.410821643286574  C 18.1946169772257 0.13694054776219  18.5041407867495 0  18.8540372670807 0  C 19.203933747412 0  19.5134575569358 0.13694054776219  19.7826086956522 0.410821643286574  L 38.5962732919255 19.5551102204409  Z " fill-rule="nonzero" fill="#000000" stroke="none" transform="matrix(1 0 0 1 230 559 )" />
  </g>
</svg>