<?xml version="1.0" encoding="utf-8"?>
<svg version="1.1" xmlns:xlink="http://www.w3.org/1999/xlink" width="150px" height="46px" xmlns="http://www.w3.org/2000/svg">
  <defs>
    <mask fill="white" id="clip3">
      <path d="M 0 46  L 0 0  L 60.3606557377038 0  L 64.2950819672114 0  L 150 0  L 150 46  L 125.491803278687 46  L 122.868852459017 46  L 15.327868852459 46  L 0 46  Z " fill-rule="evenodd" />
    </mask>
  </defs>
  <g transform="matrix(1 0 0 1 -1692 -375 )">
    <path d="M 0 46  L 0 0  L 60.3606557377038 0  L 64.2950819672114 0  L 150 0  L 150 46  L 125.491803278687 46  L 122.868852459017 46  L 15.327868852459 46  L 0 46  Z " fill-rule="nonzero" fill="#0099ff" stroke="none" fill-opacity="0.0392156862745098" transform="matrix(1 0 0 1 1692 375 )" />
    <path d="M 0 46  L 0 0  L 60.3606557377038 0  L 64.2950819672114 0  L 150 0  L 150 46  L 125.491803278687 46  L 122.868852459017 46  L 15.327868852459 46  L 0 46  Z " stroke-width="2" stroke-dasharray="3,1" stroke="#0099ff" fill="none" transform="matrix(1 0 0 1 1692 375 )" mask="url(#clip3)" />
  </g>
</svg>