<?xml version="1.0" encoding="utf-8"?>
<svg version="1.1" xmlns:xlink="http://www.w3.org/1999/xlink" width="26px" height="22px" xmlns="http://www.w3.org/2000/svg">
  <g transform="matrix(1 0 0 1 -791 -257 )">
    <path d="M 25.5303225806452 3.03703703703704  C 25.8434408602151 3.38271604938272  26 3.80246913580247  26 4.2962962962963  C 26 4.79012345679012  25.8434408602151 5.20987654320987  25.5303225806452 5.55555555555555  L 13.3858064516129 18.962962962963  L 11.1045161290323 21.4814814814815  C 10.7913978494624 21.8271604938272  10.4111827956989 22  9.96387096774194 22  C 9.51655913978495 22  9.13634408602151 21.8271604938272  8.82322580645161 21.4814814814815  L 6.54193548387097 18.962962962963  L 0.469677419354839 12.2592592592593  C 0.156559139784946 11.9135802469136  0 11.4938271604938  0 11  C 0 10.5061728395062  0.156559139784946 10.0864197530864  0.469677419354839 9.74074074074074  L 2.75096774193548 7.22222222222222  C 3.06408602150538 6.87654320987654  3.44430107526882 6.7037037037037  3.89161290322581 6.7037037037037  C 4.3389247311828 6.7037037037037  4.71913978494624 6.87654320987654  5.03225806451613 7.22222222222222  L 9.96387096774194 12.6851851851852  L 20.9677419354839 0.518518518518519  C 21.2808602150538 0.172839506172839  21.6610752688172 0  22.1083870967742 0  C 22.5556989247312 0  22.9359139784946 0.172839506172839  23.2490322580645 0.518518518518519  L 25.5303225806452 3.03703703703704  Z " fill-rule="nonzero" fill="#000000" stroke="none" transform="matrix(1 0 0 1 791 257 )" />
  </g>
</svg>