<?xml version="1.0" encoding="utf-8"?>
<svg version="1.1" xmlns:xlink="http://www.w3.org/1999/xlink" width="34px" height="20px" xmlns="http://www.w3.org/2000/svg">
  <g transform="matrix(1 0 0 1 -113 -283 )">
    <path d="M 23.4561631944444 14.9410898379971  C 24.0021701388889 14.3961708394698  24.2751736111111 13.740795287187  24.2751736111111 12.9749631811487  C 24.2751736111111 12.3956799214531  24.1079282407407 11.872852233677  23.7734375 11.4064801178203  C 23.4389467592593 10.9401080019637  23.0109953703704 10.6038291605302  22.4895833333333 10.3976435935199  C 22.4207175925926 10.839469808542  22.3075810185185 11.2911143838979  22.1501736111111 11.7525773195876  C 22.0813078703704 11.9882179675994  21.9460358796296 12.1747668139421  21.7443576388889 12.3122238586156  C 21.5426793981482 12.4496809032892  21.3237847222222 12.5184094256259  21.0876736111111 12.5184094256259  C 20.9696180555556 12.5184094256259  20.8515625 12.5036818851252  20.7335069444444 12.4742268041237  C 20.4285300925926 12.3760432007855  20.2071759259259 12.1870397643594  20.0694444444444 11.9072164948454  C 19.931712962963 11.6273932253314  19.912037037037 11.340206185567  20.0104166666667 11.0456553755523  C 20.2366898148148 10.3485517918508  20.3498263888889 9.64653902798233  20.3498263888889 8.93961708394698  C 20.3498263888889 7.7319587628866  20.0497685185185 6.61512027491409  19.4496527777778 5.58910162002945  C 18.849537037037 4.56308296514482  18.0329861111111 3.75061364752086  17 3.15169366715758  C 15.9670138888889 2.55277368679431  14.8454861111111 2.25331369661267  13.6354166666667 2.25331369661267  C 12.3171296296296 2.25331369661267  11.1021412037037 2.61168384879725  9.99045138888889 3.32842415316642  C 8.87876157407408 4.04516445753559  8.05729166666667 4.99754540991654  7.52604166666667 6.18556701030928  C 8.58854166666667 6.46048109965636  9.51331018518519 6.98085419734904  10.3003472222222 7.74668630338733  C 10.5167824074074 7.97250859106529  10.625 8.24251350024546  10.625 8.55670103092784  C 10.625 8.87088856161021  10.5167824074074 9.13598429062347  10.3003472222222 9.3519882179676  C 10.083912037037 9.56799214531173  9.81828703703704 9.6759941089838  9.50347222222222 9.6759941089838  C 9.18865740740741 9.6759941089838  8.91811342592593 9.56799214531173  8.69184027777778 9.3519882179676  C 7.95399305555556 8.61561119293078  7.06857638888889 8.24742268041237  6.03559027777778 8.24742268041237  C 4.9927662037037 8.24742268041237  4.10243055555556 8.61315660284732  3.36458333333333 9.34462444771723  C 2.62673611111111 10.0760922925871  2.2578125 10.9621993127148  2.2578125 12.0029455081001  C 2.2578125 13.0436917034855  2.62673611111111 13.9297987236132  3.36458333333333 14.6612665684831  C 4.10243055555556 15.392734413353  4.9927662037037 15.7584683357879  6.03559027777778 15.7584683357879  L 21.4713541666667 15.7584683357879  C 22.2485532407407 15.7584683357879  22.91015625 15.4860088365243  23.4561631944444 14.9410898379971  Z M 25.4040798611111 9.8159057437408  C 26.1566840277778 10.7339224349534  26.5329861111111 11.786941580756  26.5329861111111 12.9749631811487  C 26.5329861111111 14.3691703485518  26.0386284722222 15.5571919489445  25.0499131944444 16.5390279823269  C 24.0611979166667 17.5208640157094  22.8683449074074 18.0117820324006  21.4713541666667 18  L 6.03559027777778 18  C 4.37297453703704 18.0117820324006  2.95138888888889 17.4251350024546  1.77083333333333 16.2518409425626  C 0.590277777777778 15.0785468826706  0 13.6622484045164  0 12.0029455081001  C 0 10.500736377025  0.491898148148148 9.1899852724595  1.47569444444444 8.07069219440353  C 2.45949074074074 6.95139911634757  3.68431712962963 6.28375061364752  5.15017361111111 6.06774668630339  C 5.76012731481481 4.26116838487972  6.84722222222222 2.79823269513991  8.41145833333333 1.67893961708395  C 9.97569444444444 0.559646539027983  11.7170138888889 0  13.6354166666667 0  C 15.947337962963 0  17.9567418981482 0.778105056455571  19.6636284722222 2.33431516936672  C 21.3705150462963 3.89052528227786  22.3370949074074 5.80265095729013  22.5633680555556 8.07069219440353  C 23.7045717592593 8.31615120274914  24.6514756944444 8.89788905252823  25.4040798611111 9.8159057437408  Z M 28.7907986111111 8.29160530191458  C 29.7450810185185 9.68581246931762  30.2222222222222 11.2469317623957  30.2222222222222 12.9749631811487  C 30.2222222222222 14.693176239568  29.7450810185185 16.259204712813  28.7907986111111 17.6730486008837  C 28.564525462963 17.9970544918999  28.2497106481482 18.159057437408  27.8463541666667 18.159057437408  C 27.6102430555556 18.159057437408  27.3987268518519 18.0952380952381  27.2118055555556 17.9675994108984  C 26.9560185185185 17.8006872852234  26.7986111111111 17.5625920471281  26.7395833333333 17.2533136966127  C 26.6805555555556 16.9440353460972  26.7395833333333 16.6617574864998  26.9166666666667 16.4064801178203  C 27.615162037037 15.3853706431026  27.9644097222222 14.2415316642121  27.9644097222222 12.9749631811487  C 27.9644097222222 11.7083946980854  27.615162037037 10.5645557191949  26.9166666666667 9.54344624447717  C 26.7395833333333 9.28816887579774  26.6805555555556 9.00834560628375  26.7395833333333 8.7039764359352  C 26.7986111111111 8.39960726558665  26.9560185185185 8.15905743740795  27.2118055555556 7.98232695139912  C 27.4675925925926 7.80559646539028  27.7504340277778 7.74914089347079  28.0603298611111 7.81296023564065  C 28.3702256944444 7.8767795778105  28.6137152777778 8.03632793323515  28.7907986111111 8.29160530191458  Z M 32.0225694444444 6.46539027982327  C 33.3408564814815 8.40942562592047  34 10.5792832596956  34 12.9749631811487  C 34 15.3706431026019  33.3408564814815 17.5454099165439  32.0225694444444 19.499263622975  C 31.7962962962963 19.833087874325  31.4814814814815 20  31.078125 20  C 30.8518518518519 20  30.6452546296296 19.9361806578301  30.4583333333333 19.8085419734904  C 30.2025462962963 19.6318114874816  30.0426793981482 19.3912616593029  29.9787326388889 19.0868924889543  C 29.9147858796296 18.7825233186058  29.9713541666667 18.5027000490918  30.1484375 18.2474226804124  C 31.2109375 16.6372115856652  31.7421875 14.8797250859107  31.7421875 12.9749631811487  C 31.7421875 11.060382916053  31.2109375 9.30780559646539  30.1484375 7.71723122238586  C 29.9713541666667 7.46195385370643  29.9147858796296 7.17967599410898  29.9787326388889 6.87039764359352  C 30.0426793981482 6.56111929307805  30.2025462962963 6.32302405498282  30.4583333333333 6.15611192930781  C 30.7141203703704 5.97938144329897  30.9945023148148 5.92047128129602  31.2994791666667 5.97938144329897  C 31.6044560185185 6.03829160530192  31.8454861111111 6.20029455081001  32.0225694444444 6.46539027982327  Z " fill-rule="nonzero" fill="#000000" stroke="none" transform="matrix(1 0 0 1 113 283 )" />
  </g>
</svg>