<?xml version="1.0" encoding="utf-8"?>
<svg version="1.1" xmlns:xlink="http://www.w3.org/1999/xlink" width="34px" height="25px" xmlns="http://www.w3.org/2000/svg">
  <g transform="matrix(1 0 0 1 -223 -391 )">
    <path d="M 31.399685699319 14.9502840909091  C 31.6134101623887 14.6898674242424  31.7202723939235 14.4590435606061  31.7202723939235 14.2578125  C 31.7202723939235 13.8435132575758  31.4056224899598 13.6363636363636  30.7763226820325 13.6363636363636  L 11.3986380303824 13.6363636363636  C 10.9236947791165 13.6363636363636  10.416099179326 13.7636126893939  9.875851231011 14.0181107954545  C 9.335603282696 14.2726089015151  8.91112275187707 14.5833333333333  8.60240963855422 14.9502840909091  L 3.3661602933473 21.3955965909091  C 3.15243583027763 21.6796875  3.0455735987428 21.9164299242424  3.0455735987428 22.1058238636364  C 3.0455735987428 22.5201231060606  3.36022350270648 22.7272727272727  3.98952331063384 22.7272727272727  L 23.3672079622839 22.7272727272727  C 23.8421512135499 22.7272727272727  24.3527152086607 22.5970643939394  24.8988999476166 22.3366477272727  C 25.4450846865724 22.0762310606061  25.8665968220709 21.7625473484849  26.1634363541121 21.3955965909091  L 31.399685699319 14.9502840909091  Z M 8.90518596123625 11.9762073863636  C 9.76008381351493 11.5678267045455  10.5912345032303 11.3636363636364  11.3986380303824 11.3636363636364  L 25.0770036668413 11.3636363636364  L 25.0770036668413 8.52272727272727  C 25.0770036668413 8.04924242424242  24.9107735288982 7.6467803030303  24.578313253012 7.31534090909091  C 24.2458529771259 6.98390151515151  23.8421512135499 6.81818181818182  23.3672079622839 7  L 13.1084337349398 7  C 12.6334904836738 6.81818181818182  12.2297887200978 6.65246212121212  11.8973284442116 6.32102272727273  C 11.5648681683255 5.98958333333333  11.3986380303824 5.58712121212121  11.3986380303824 5.11363636363637  L 11.3986380303824 3.97727272727273  C 11.3986380303824 3.50378787878788  11.2324078924393 3.10132575757575  10.8999476165532 2.76988636363636  C 10.567487340667 2.43844696969697  10.163785577091 2.27272727272727  9.68884232582504 2.27272727272727  L 3.98952331063384 2.27272727272727  C 3.51458005936791 2.27272727272727  3.11087829579186 2.43844696969697  2.77841801990571 2.76988636363636  C 2.44595774401956 3.10132575757575  2.27972760607648 3.50378787878788  2.27972760607648 3.97727272727273  L 2.27972760607648 19.1228693181818  L 6.83918281822944 13.5298295454545  C 7.36162039462197 12.9024621212121  8.05028810895757 12.3845880681818  8.90518596123625 11.9762073863636  Z M 33.7328444211629 13.0504261363636  C 33.9109481403876 13.4292140151515  34 13.8316761363636  34 14.2578125  C 34 14.9917140151515  33.7269076305221 15.7019412878788  33.1807228915663 16.3884943181818  L 27.9266631744369 22.8338068181818  C 27.416099179326 23.4611742424242  26.7274314649904 23.9790482954545  25.8606600314301 24.3874289772727  C 24.9938885978697 24.7958096590909  24.1627379081544 25  23.3672079622839 25  L 3.98952331063384 25  C 2.89715383272219 25  1.95914091147198 24.609375  1.17548454688318 23.828125  C 0.391828182294395 23.046875  0 22.1117424242424  0 21.0227272727273  L 0 3.97727272727273  C 0 2.88825757575757  0.391828182294395 1.953125  1.17548454688318 1.171875  C 1.95914091147198 0.390625  2.89715383272219 0  3.98952331063384 0  L 9.68884232582504 0  C 10.7812118037367 0  11.7192247249869 0.390625  12.5028810895757 1.171875  C 13.2865374541645 1.953125  13.6783656364589 2.88825757575757  13.6783656364589 3.97727272727273  L 13.6783656364589 4.54545454545454  L 23.3672079622839 4.54545454545454  C 24.4595774401956 4.54545454545454  25.3975903614458 4.93607954545454  26.1812467260346 5.71732954545454  C 26.9649030906234 6.49857954545454  27.3567312729178 7.43371212121212  27.3567312729178 8.52272727272727  L 27.3567312729178 11.3636363636364  L 30.7763226820325 11.3636363636364  C 31.4174960712415 11.3636363636364  32.0052383446831 11.5086410984849  32.5395495023573 11.7986505681818  C 33.0738606600314 12.0886600378788  33.4716256329666 12.5059185606061  33.7328444211629 13.0504261363636  Z " fill-rule="nonzero" fill="#000000" stroke="none" transform="matrix(1 0 0 1 223 391 )" />
  </g>
</svg>