<?xml version="1.0" encoding="utf-8"?>
<svg version="1.1" xmlns:xlink="http://www.w3.org/1999/xlink" width="28px" height="29px" xmlns="http://www.w3.org/2000/svg">
  <g transform="matrix(1 0 0 1 -230 -280 )">
    <path d="M 19.8246091094494 25.4222005208333  C 21.4679356446862 24.6481119791667  22.8669839111715 23.5687934027778  24.0217539089055 22.1842447916667  C 23.3365057783821 22.2975260416667  22.6385678676637 22.3541666666667  21.9279401767505 22.3541666666667  C 19.6184001812826 22.3541666666667  17.4801722184455 21.7877604166667  15.5132562882393 20.6549479166667  C 13.5463403580331 19.5221354166667  11.9918422841604 17.9802517361111  10.8497620666213 16.029296875  C 9.70768184908226 14.0783420138889  9.13664174031271 11.9574652777778  9.13664174031271 9.66666666666667  C 9.13664174031271 7.25  9.79651031044641 5.00325520833333  11.1162474507138 2.92643229166667  C 8.56560163154317 3.681640625  6.48130523453433 5.12282986111111  4.86335825968729 7.25  C 3.24541128484025 9.37717013888889  2.43643779741672 11.7938368055556  2.43643779741672 14.5  C 2.43643779741672 16.1362847222222  2.76002719238613 17.7001953125  3.40720598232495 19.1917317708333  C 4.05438477226377 20.6832682291667  4.92046227056424 21.9671223958333  6.00543847722638 23.0432942708333  C 7.09041468388851 24.1194661458333  8.38477226376614 24.978515625  9.88851121685928 25.6204427083333  C 11.3922501699524 26.2623697916667  12.9689553591661 26.5833333333333  14.6186267845003 26.5833333333333  C 16.4459551325629 26.5833333333333  18.1812825742126 26.1962890625  19.8246091094494 25.4222005208333  Z M 27.9714479945615 19.8619791666667  C 28.0158622252436 20.1137152777778  27.9873102198051 20.3528645833333  27.8857919782461 20.5794270833333  C 26.6929526399275 23.1345486111111  24.8941762973034 25.1767578125  22.4894629503739 26.7060546875  C 20.0847496034444 28.2353515625  17.4611375481532 29  14.6186267845003 29  C 12.6390210740993 29  10.7482438250623 28.6161024305556  8.94629503738953 27.8483072916667  C 7.14434624971675 27.0805121527778  5.5898481758441 26.0483940972222  4.28280081577158 24.751953125  C 2.97575345569907 23.4555121527778  1.93519147971901 21.9136284722222  1.16111488783141 20.1263020833333  C 0.387038295943803 18.3389756944444  0 16.4635416666667  0 14.5  C 0 12.57421875  0.364831180602765 10.7333984375  1.09449354180829 8.9775390625  C 1.82415590301382 7.2216796875  2.81395875821437 5.70182291666667  4.06390210740993 4.41796875  C 5.31384545660548 3.13411458333333  6.80806707455246 2.09884982638888  8.54656696125085 1.31217447916667  C 10.2850668479492 0.525499131944444  12.1250849762067 0.0944010416666677  14.0666213460231 0.0188802083333323  C 14.6249716745978 -0.00629340277778279  15.0120099705416 0.239149305555553  15.2277362338545 0.755208333333332  C 15.4561522773623 1.27126736111111  15.3609789259007 1.72439236111111  14.9422161794697 2.11458333333333  C 13.8508950827102 3.09635416666667  13.0165420348969 4.23860677083333  12.4391570360299 5.54134114583333  C 11.8617720371629 6.84407552083333  11.5730795377294 8.21918402777778  11.5730795377294 9.66666666666667  C 11.5730795377294 11.5295138888889  12.0362565148425 13.2476128472222  12.9626104690687 14.8209635416667  C 13.8889644232948 16.3943142361111  15.1452526625878 17.6404079861111  16.7314751869477 18.5592447916667  C 18.3176977113075 19.4780815972222  20.0498527079085 19.9375  21.9279401767505 19.9375  C 23.4253342397462 19.9375  24.8719691819624 19.6165364583333  26.267845003399 18.974609375  C 26.7881259913891 18.748046875  27.2449580784047 18.8298611111111  27.638341264446 19.2200520833333  C 27.8159981871743 19.3962673611111  27.9270337638794 19.6102430555556  27.9714479945615 19.8619791666667  Z " fill-rule="nonzero" fill="#000000" stroke="none" transform="matrix(1 0 0 1 230 280 )" />
  </g>
</svg>