<?xml version="1.0" encoding="utf-8"?>
<svg version="1.1" xmlns:xlink="http://www.w3.org/1999/xlink" width="27px" height="22px" xmlns="http://www.w3.org/2000/svg">
  <g transform="matrix(1 0 0 1 -175 -336 )">
    <path d="M 26.666015625 17.9265625  C 26.888671875 18.1442708333333  27 18.4020833333333  27 18.7  L 27 20.9  C 27 21.1979166666667  26.888671875 21.4557291666667  26.666015625 21.6734375  C 26.443359375 21.8911458333333  26.1796875 22  25.875 22  L 1.125 22  C 0.8203125 22  0.556640625 21.8911458333333  0.333984375 21.6734375  C 0.111328125 21.4557291666667  0 21.1979166666667  0 20.9  L 0 18.7  C 0 18.4020833333333  0.111328125 18.1442708333333  0.333984375 17.9265625  C 0.556640625 17.7088541666667  0.8203125 17.6  1.125 17.6  L 25.875 17.6  C 26.1796875 17.6  26.443359375 17.7088541666667  26.666015625 17.9265625  Z M 26.666015625 9.1265625  C 26.888671875 9.34427083333333  27 9.60208333333333  27 9.9  L 27 12.1  C 27 12.3979166666667  26.888671875 12.6557291666667  26.666015625 12.8734375  C 26.443359375 13.0911458333333  26.1796875 13.2  25.875 13  L 1.125 13  C 0.8203125 13.2  0.556640625 13.0911458333333  0.333984375 12.8734375  C 0.111328125 12.6557291666667  0 12.3979166666667  0 12.1  L 0 9.9  C 0 9.60208333333333  0.111328125 9.34427083333333  0.333984375 9.1265625  C 0.556640625 8.90885416666667  0.8203125 8.8  1.125 9  L 25.875 9  C 26.1796875 8.8  26.443359375 8.90885416666667  26.666015625 9.1265625  Z M 26.666015625 0.326562500000001  C 26.888671875 0.544270833333332  27 0.802083333333332  27 1.1  L 27 3.3  C 27 3.59791666666666  26.888671875 3.85572916666666  26.666015625 4.0734375  C 26.443359375 4.29114583333333  26.1796875 4.4  25.875 4.4  L 1.125 4.4  C 0.8203125 4.4  0.556640625 4.29114583333333  0.333984375 4.0734375  C 0.111328125 3.85572916666666  0 3.59791666666666  0 3.3  L 0 1.1  C 0 0.802083333333332  0.111328125 0.544270833333332  0.333984375 0.326562500000001  C 0.556640625 0.108854166666665  0.8203125 0  1.125 0  L 25.875 0  C 26.1796875 0  26.443359375 0.108854166666665  26.666015625 0.326562500000001  Z " fill-rule="nonzero" fill="#000000" stroke="none" transform="matrix(1 0 0 1 175 336 )" />
  </g>
</svg>