<?xml version="1.0" encoding="utf-8"?>
<svg version="1.1" xmlns:xlink="http://www.w3.org/1999/xlink" width="75px" height="75px" xmlns="http://www.w3.org/2000/svg">
  <g transform="matrix(1 0 0 1 -1431 -308 )">
    <path d="M 1468.5 308  C 1489.5 308  1506 324.5  1506 345.5  C 1506 366.5  1489.5 383  1468.5 383  C 1447.5 383  1431 366.5  1431 345.5  C 1431 324.5  1447.5 308  1468.5 308  Z " fill-rule="nonzero" fill="#ffffff" stroke="none" fill-opacity="0" />
    <path d="M 1468.5 308.5  C 1489.22 308.5  1505.5 324.78  1505.5 345.5  C 1505.5 366.22  1489.22 382.5  1468.5 382.5  C 1447.78 382.5  1431.5 366.22  1431.5 345.5  C 1431.5 324.78  1447.78 308.5  1468.5 308.5  Z " stroke-width="1" stroke="#797979" fill="none" />
  </g>
</svg>